<?xml version="1.0" standalone="no"?>
<!DOCTYPE svg PUBLIC "-//W3C//DTD SVG 20010904//EN"
 "http://www.w3.org/TR/2001/REC-SVG-20010904/DTD/svg10.dtd">
<svg version="1.0" xmlns="http://www.w3.org/2000/svg"
 width="600.000000pt" height="600.000000pt" viewBox="0 0 600.000000 600.000000"
 preserveAspectRatio="xMidYMid meet">
<metadata>
Created by potrace 1.14, written by Peter Selinger 2001-2017
</metadata>
<g transform="translate(0.000000,600.000000) scale(0.100000,-0.100000)"
fill="#000000" stroke="none">
<path d="M4230 5490 c-241 -30 -497 -158 -616 -308 -24 -31 -61 -91 -81 -132
-21 -41 -38 -76 -39 -78 -1 -2 -22 0 -47 3 -43 7 -45 8 -51 48 -5 31 -19 53
-55 89 -41 41 -54 48 -88 48 -21 0 -161 1 -310 3 -149 1 -276 1 -282 -1 -42
-14 26 -19 287 -20 301 0 346 -5 359 -38 15 -39 -14 -42 -370 -44 -325 -1
-342 -2 -362 -20 -25 -23 -48 -26 -64 -6 -17 20 -9 68 11 74 10 2 16 8 13 12
-3 5 13 11 35 15 39 7 66 25 37 25 -22 0 -117 -41 -118 -51 -3 -19 -5 -25 -22
-56 -9 -18 -17 -41 -17 -53 0 -17 -6 -20 -42 -20 -56 0 -223 -41 -321 -78
-163 -63 -336 -179 -477 -321 -91 -92 -207 -252 -195 -270 3 -6 1 -10 -6 -9
-16 4 -101 -166 -137 -277 -51 -154 -82 -352 -82 -526 0 -93 -2 -109 -16 -109
-44 0 -154 -83 -154 -117 0 -7 -4 -13 -8 -13 -10 0 -31 -74 -34 -118 -2 -25
-11 -38 -40 -57 -36 -24 -53 -53 -25 -42 8 3 13 -3 13 -14 0 -12 -4 -15 -10
-9 -15 15 -26 12 -26 -6 0 -8 4 -13 9 -10 4 3 8 -8 7 -23 -1 -16 -5 -27 -9
-24 -4 2 -5 -8 -2 -24 3 -15 2 -22 -1 -15 -9 19 -20 14 -33 -15 -9 -20 -9 -28
0 -34 11 -6 14 -132 5 -194 -3 -19 -45 -35 -47 -18 0 4 -2 17 -4 29 -11 53
-11 164 -1 164 6 0 5 5 -2 12 -19 19 -24 4 -29 -89 -6 -106 16 -177 72 -235
31 -31 83 -56 107 -50 4 1 12 -15 19 -36 26 -79 104 -161 169 -177 25 -6 25
-8 26 -108 0 -95 2 -107 34 -170 20 -41 54 -86 86 -117 74 -70 227 -140 212
-97 -3 6 -15 42 -27 80 -18 53 -29 71 -52 83 -17 8 -27 20 -23 26 4 6 3 8 -3
5 -6 -4 -29 13 -51 37 -45 49 -70 115 -79 209 l-6 58 39 -26 c31 -21 47 -26
78 -22 21 3 43 11 47 19 10 15 12 1138 3 1162 -10 27 -69 31 -109 7 -68 -40
-75 -34 -75 72 0 159 40 383 96 537 64 181 191 383 309 495 84 79 117 105 127
99 7 -4 8 -3 4 4 -7 11 65 64 164 119 116 66 299 126 426 141 l72 8 16 -57
c32 -116 99 -159 249 -159 62 0 98 -4 103 -12 4 -6 6 -98 5 -204 l-2 -192 133
1 133 2 1 200 2 200 78 3 c90 4 135 23 182 76 28 32 52 89 52 123 0 9 10 11
33 6 17 -3 33 -6 34 -7 1 -1 -3 -24 -9 -51 -11 -60 -3 -192 16 -256 47 -153
174 -290 366 -394 53 -29 55 -32 58 -75 2 -24 -2 -64 -9 -88 l-12 -43 -26 25
c-35 33 -125 74 -181 81 -45 6 -45 6 29 -30 41 -19 90 -47 109 -62 l34 -26
-53 -26 c-29 -14 -55 -31 -57 -38 -2 -6 15 -24 37 -39 23 -15 41 -31 41 -36 0
-5 -5 -6 -12 -2 -7 4 -8 3 -4 -4 4 -6 0 -25 -9 -43 -16 -31 -16 -31 7 -24 50
16 53 17 36 5 -10 -6 -18 -20 -18 -31 0 -19 4 -20 43 -14 57 9 100 22 175 52
61 26 63 26 77 7 18 -24 18 -31 0 -31 -8 0 -15 4 -15 8 0 5 -7 6 -15 3 -8 -4
-12 -10 -9 -15 3 -5 10 -7 15 -4 5 4 9 -4 8 -17 0 -13 -3 -17 -6 -10 -2 6 -9
12 -14 12 -6 0 -8 -4 -4 -9 3 -5 -3 -12 -12 -14 -10 -3 -5 -4 11 -3 18 2 32
10 37 22 7 17 8 17 8 2 1 -10 -8 -27 -20 -39 -13 -13 -19 -30 -18 -47 2 -15
-1 -33 -6 -41 -6 -11 -4 -13 8 -8 12 5 17 1 17 -13 0 -12 -7 -20 -16 -20 -11
0 -14 -6 -9 -22 5 -18 4 -20 -4 -8 -10 13 -12 13 -21 0 -6 -10 -10 -11 -10 -2
0 6 -5 12 -11 12 -5 0 -7 -5 -4 -10 9 -15 -24 -25 -38 -11 -6 6 -16 11 -22 11
-5 0 -2 -7 8 -14 18 -14 13 -51 -6 -39 -5 3 -7 1 -3 -5 3 -5 0 -12 -6 -15 -7
-2 3 -4 22 -3 19 1 40 7 46 15 15 19 49 10 49 -14 0 -17 -7 -20 -42 -21 -24 0
-43 3 -43 8 0 4 -9 3 -20 -4 -14 -9 -20 -24 -20 -51 0 -33 -3 -38 -19 -32 -14
4 -23 0 -30 -14 -6 -11 -18 -27 -27 -35 -20 -20 -4 -21 22 -1 27 20 43 18 64
-7 16 -21 20 -21 37 -8 24 21 73 25 84 8 7 -10 9 -10 9 2 0 8 7 2 15 -14 21
-41 19 -51 -14 -54 -23 -2 -31 3 -41 28 -12 28 -14 29 -26 13 -16 -21 -18 -47
-4 -38 6 3 10 0 10 -7 0 -7 9 -19 20 -26 17 -10 21 -10 26 3 9 21 19 19 21 -5
1 -12 -3 -18 -8 -14 -6 3 -13 -3 -16 -15 -3 -12 -9 -21 -13 -21 -5 0 -10 -10
-12 -22 -2 -15 -11 -24 -25 -26 -26 -4 -29 -12 -10 -32 10 -12 9 -12 -5 -1
-10 8 -18 9 -18 3 0 -5 -12 -14 -27 -20 -34 -11 -70 2 -78 30 -4 10 -10 16
-14 13 -5 -2 -13 6 -19 19 -6 13 -24 39 -42 59 -19 22 -25 34 -16 33 9 -1 18
-5 22 -9 4 -4 14 1 22 11 12 14 12 13 -1 -8 -13 -23 -12 -28 10 -60 21 -32 23
-33 20 -10 -2 14 2 30 10 35 8 6 15 20 15 31 2 19 6 20 31 13 36 -10 77 -36
77 -48 0 -5 9 -7 21 -4 19 5 13 13 -47 68 -61 56 -94 71 -94 43 0 -19 -54 -53
-85 -54 -16 0 -44 5 -62 13 -71 29 -169 9 -226 -45 -90 -85 -101 -256 -23
-361 14 -19 23 -37 21 -41 -3 -4 3 -14 13 -21 15 -13 16 -12 3 4 -18 23 -6 22
28 -4 80 -59 198 -38 271 48 18 21 27 28 21 17 -5 -12 -7 -25 -3 -29 4 -3 0
-5 -8 -3 -8 2 -14 -3 -12 -10 1 -8 -2 -11 -8 -7 -9 5 -14 -7 -11 -27 0 -4 -6
-5 -14 -2 -8 4 -15 1 -15 -6 0 -6 -4 -9 -8 -6 -4 2 -14 1 -22 -5 -13 -7 -12
-9 1 -9 11 0 18 -11 21 -29 3 -23 1 -27 -14 -23 -10 2 -16 7 -13 10 3 3 -7 11
-22 18 l-28 13 35 -5 c34 -4 34 -4 8 7 -19 7 -33 7 -45 0 -10 -6 -12 -11 -5
-11 20 0 14 -28 -8 -35 -11 -3 -20 -12 -20 -20 0 -8 -12 -16 -27 -18 -16 -2
13 -6 62 -8 50 -2 -18 -6 -155 -9 l-245 -6 273 -2 273 -2 -7 -22 c-4 -13 -31
-99 -60 -191 -30 -92 -54 -170 -54 -172 0 -3 -414 -4 -921 -3 l-921 3 -32 36
c-30 32 -34 43 -40 122 -4 53 -3 102 4 126 11 40 59 91 86 91 9 0 12 5 9 10
-10 16 -57 0 -88 -28 -38 -36 -50 -90 -45 -202 5 -103 17 -137 65 -182 l29
-28 769 -5 c423 -3 771 -7 773 -10 3 -3 -28 -5 -69 -6 -41 0 -68 -3 -61 -6 6
-2 10 -9 6 -14 -3 -5 0 -9 6 -9 17 0 -55 -66 -113 -103 -27 -18 -28 -19 -11
-38 14 -16 15 -19 2 -24 -8 -3 -19 -5 -24 -4 -24 4 -34 -4 -51 -38 -10 -21
-18 -42 -19 -48 0 -5 -2 -14 -2 -20 -1 -5 -21 -11 -45 -13 -23 -1 -43 -7 -45
-12 -2 -6 -10 -10 -18 -10 -8 0 -24 -16 -35 -35 -22 -36 -33 -43 -44 -25 -9
15 -48 -8 -42 -24 5 -13 -51 -36 -86 -36 -9 0 -17 -10 -19 -23 -2 -12 -10 -22
-18 -22 -9 0 -27 -10 -40 -23 -26 -24 -24 -24 -93 -26 -42 -1 -47 1 -45 19 2
13 10 19 23 18 11 -1 15 0 8 3 -7 3 -10 11 -7 19 4 9 -2 12 -18 12 -20 -2 -23
-6 -20 -29 4 -27 -29 -84 -42 -71 -3 3 -6 2 -6 -4 0 -29 -33 -19 -77 22 -26
25 -51 45 -57 45 -6 -1 1 -11 15 -23 15 -12 34 -34 44 -50 17 -27 17 -27 -8
-27 -13 0 -30 7 -37 15 -16 19 -37 19 -56 0 -21 -21 -35 -19 -41 5 -6 22 -18
26 -28 10 -3 -5 -1 -10 6 -10 7 0 10 -2 8 -5 -9 -8 -145 28 -206 55 -34 16
-82 42 -107 60 -26 17 -51 28 -56 25 -6 -3 -24 3 -40 15 l-30 22 -36 -32 c-49
-42 -80 -53 -117 -40 -36 12 -37 12 -37 1 0 -23 110 -136 171 -176 163 -108
346 -156 584 -155 72 1 149 1 173 1 l42 -1 0 -165 0 -165 -25 10 c-28 11 -367
-3 -496 -20 -41 -5 -110 -14 -154 -20 -209 -27 -369 -64 -408 -94 -48 -37 21
-84 163 -110 260 -48 632 -83 1025 -97 335 -12 929 -6 1090 10 400 42 521 60
698 102 90 22 128 48 107 75 -23 27 -186 72 -340 94 -121 17 -384 39 -538 44
-84 4 -162 11 -172 16 -27 15 -105 12 -145 -4 l-35 -15 0 168 0 168 238 6
c318 8 431 33 580 130 103 67 213 192 253 289 9 21 30 38 83 64 102 49 168
110 208 192 32 64 33 72 33 184 l0 116 39 12 c54 16 128 93 151 158 14 37 24
52 37 52 45 0 109 53 144 120 16 29 19 57 19 155 0 107 -3 125 -24 170 -14 28
-53 78 -87 112 -56 54 -64 68 -73 117 -13 69 -40 122 -83 162 -34 33 -104 74
-124 74 -7 0 -13 56 -17 168 -7 177 -25 310 -57 430 -11 40 -18 77 -15 82 2 4
25 11 50 14 64 10 198 57 285 101 313 157 459 420 394 708 -78 343 -452 579
-939 592 -71 2 -164 0 -205 -5z m296 -51 c548 -55 892 -394 799 -788 -23 -97
-70 -177 -155 -261 -112 -112 -251 -185 -447 -237 -81 -21 -128 -26 -268 -30
-93 -3 -194 -1 -223 5 l-52 9 -32 -59 c-37 -70 -133 -163 -212 -206 l-55 -30
13 27 c29 56 56 165 56 226 0 60 -2 65 -35 94 -20 17 -41 31 -47 31 -21 0
-131 74 -188 127 -173 160 -219 365 -135 606 92 266 361 449 714 486 112 12
146 12 267 0z m-2019 -429 c-2 -24 0 -25 -23 2 -10 12 -13 18 -6 14 6 -4 12
-2 12 4 0 6 4 9 9 5 6 -3 9 -14 8 -25z m-22 -30 c-3 -5 -12 -10 -18 -10 -7 0
-6 4 3 10 19 12 23 12 15 0z m389 -403 c-8 -22 14 -69 28 -61 7 4 10 4 6 -1
-4 -4 0 -14 10 -22 9 -7 13 -13 7 -12 -27 4 -37 -4 -51 -36 -8 -20 -19 -33
-24 -30 -14 9 -12 48 3 64 6 8 7 11 1 8 -7 -4 -11 7 -11 33 0 22 4 37 8 34 5
-3 6 2 3 10 -4 10 -1 16 7 16 7 0 9 3 6 6 -4 4 -13 1 -21 -5 -13 -11 -15 -4
-7 27 1 1 10 -2 21 -8 10 -6 17 -16 14 -23z m56 -59 l22 -33 -22 25 c-13 14
-27 24 -32 22 -5 -1 -7 2 -3 8 9 15 12 13 35 -22z m17 -80 c-3 -8 -6 -5 -6 6
-1 11 2 17 5 13 3 -3 4 -12 1 -19z m1495 -371 l137 2 15 -52 c29 -104 36 -134
51 -241 8 -60 15 -169 15 -243 0 -128 -1 -133 -21 -133 -13 0 -18 4 -13 12 4
7 3 8 -4 4 -6 -4 -23 1 -37 10 -18 12 -36 15 -65 10 l-40 -6 0 59 c0 130 -54
271 -138 361 -33 36 -51 49 -52 38 0 -9 -6 -19 -12 -21 -10 -4 -9 -8 2 -17 12
-9 10 -10 -9 -5 -13 4 -21 3 -18 -1 3 -5 -1 -15 -9 -21 -15 -15 -29 0 -18 19
5 7 3 8 -7 2 -25 -16 -69 -13 -70 5 0 10 -2 11 -6 4 -2 -7 3 -23 11 -35 9 -12
16 -17 16 -10 0 7 5 10 10 7 6 -3 10 0 11 7 0 10 2 10 6 0 2 -6 8 -10 13 -7 4
3 10 -2 13 -10 4 -9 1 -12 -9 -8 -7 3 -14 0 -14 -7 0 -10 -3 -10 -15 0 -8 7
-15 9 -15 4 0 -4 -11 3 -25 16 -13 12 -22 26 -20 31 3 4 0 11 -6 15 -8 4 -9 3
-5 -4 11 -19 -8 -14 -31 7 -12 11 -25 17 -29 13 -5 -4 14 18 43 49 28 31 66
79 83 108 l32 52 47 -8 c25 -4 108 -7 183 -6z m-272 -381 c0 -14 -18 -5 -24
12 -3 9 -9 24 -12 32 -4 8 3 3 15 -12 11 -14 21 -29 21 -32z m-36 8 c3 -8 2
-12 -4 -9 -6 3 -10 10 -10 16 0 14 7 11 14 -7z m63 -66 c-3 -8 -6 -5 -6 6 -1
11 2 17 5 13 3 -3 4 -12 1 -19z m38 -67 c3 -5 -1 -15 -8 -23 -11 -11 -11 -18
0 -38 7 -14 13 -19 13 -12 0 7 5 10 10 7 6 -3 10 -9 10 -13 0 -12 -39 -12 -46
-1 -11 18 -23 69 -14 64 4 -3 10 2 14 10 6 17 12 19 21 6z m-175 -82 c0 -5 5
-7 10 -4 6 3 10 1 10 -4 0 -14 -17 -14 -25 -1 -9 15 -19 12 -43 -10 -12 -12
-23 -16 -27 -10 -8 13 4 32 15 25 5 -3 11 -1 15 5 8 13 45 13 45 -1z m-90 -83
c0 -3 -4 -8 -10 -11 -5 -3 -10 -1 -10 4 0 6 5 11 10 11 6 0 10 -2 10 -4z m44
-12 c3 -8 11 -12 17 -8 8 5 9 3 5 -5 -6 -9 -12 -9 -25 3 -10 9 -21 13 -24 9
-4 -3 -7 -1 -7 5 0 18 27 14 34 -4z m159 2 c9 -7 17 -16 17 -19 0 -13 -35 -47
-48 -47 -9 0 -11 -7 -7 -20 5 -16 3 -19 -11 -13 -12 4 -15 3 -10 -5 4 -7 2
-12 -3 -12 -6 0 -11 7 -11 15 0 8 -4 15 -10 15 -5 0 -10 7 -10 16 0 8 5 12 11
9 6 -4 5 2 -2 13 -11 18 -10 24 5 41 22 24 53 27 79 7z m-183 -31 c-7 -9 -15
-13 -19 -10 -3 3 1 10 9 15 21 14 24 12 10 -5z m-2801 -92 c-1 -54 -4 -88 -6
-75 -2 12 -7 22 -9 22 -10 0 -34 -29 -34 -41 0 -8 -5 -8 -17 2 -11 9 -14 10
-9 2 4 -7 2 -21 -3 -30 -9 -16 -10 -15 -11 5 0 13 -4 20 -10 17 -6 -4 -7 -12
-4 -18 5 -9 4 -9 -6 0 -7 6 -20 9 -29 6 -12 -4 -11 -1 4 11 17 15 17 17 3 12
-12 -3 -23 3 -33 18 -20 30 -7 67 35 103 17 14 27 30 23 36 -3 7 -3 9 1 5 4
-3 22 0 39 7 65 29 67 26 66 -82z m3655 36 c47 -37 24 -85 -29 -61 -38 18 -46
82 -11 82 7 0 25 -9 40 -21z m-625 4 c-1 -15 -34 -66 -42 -64 -4 0 -11 1 -17
1 -5 0 -10 12 -10 26 0 23 3 26 26 21 18 -3 24 -1 20 9 -3 8 1 14 9 14 8 0 15
-3 14 -7z m-354 -102 c3 -5 2 -12 -3 -15 -5 -3 -9 1 -9 9 0 17 3 19 12 6z
m-2835 -44 c0 -4 -7 -2 -15 7 -8 8 -15 21 -15 28 1 14 30 -20 30 -35z m3130
-12 c15 -18 5 -35 -21 -35 -12 0 -19 7 -19 18 0 33 20 42 40 17z m-560 -70 c6
-8 9 -23 5 -34 -9 -29 -36 -35 -58 -13 -16 16 -17 23 -8 41 13 24 43 28 61 6z
m296 -65 c16 0 19 -26 4 -35 -6 -4 -7 -11 -4 -17 4 -6 2 -8 -4 -4 -6 4 -12 -5
-15 -21 -2 -16 -4 1 -5 37 0 36 2 59 5 53 2 -7 11 -13 19 -13z m-2787 -132
c13 -33 -10 -55 -41 -40 -23 11 -23 11 3 8 22 -4 26 -1 24 17 -3 30 -2 29 -25
17 -16 -9 -18 -8 -14 5 9 23 43 18 53 -7z m2820 -11 c-2 -1 -13 -9 -24 -17
-19 -14 -19 -14 -6 3 7 9 18 17 24 17 6 0 8 -1 6 -3z m-89 -194 c-11 -17 -11
-17 -6 0 3 10 6 24 7 30 0 9 2 9 5 0 3 -7 0 -20 -6 -30z m-135 -23 c3 -5 1
-10 -4 -10 -6 0 -11 5 -11 10 0 6 2 10 4 10 3 0 8 -4 11 -10z m-5 -26 c0 -2
-7 -4 -15 -4 -8 0 -15 4 -15 10 0 5 7 7 15 4 8 -4 15 -8 15 -10z m115 -24 c-3
-5 -10 -10 -16 -10 -5 0 -9 5 -9 10 0 6 7 10 16 10 8 0 12 -4 9 -10z m329 -54
c34 -22 49 -82 44 -181 -2 -63 -8 -87 -25 -111 -38 -54 -75 -64 -223 -64
l-131 0 7 23 c3 12 31 97 61 189 l54 167 57 3 c72 4 124 -5 156 -26z m496
-304 c0 -59 -20 -151 -43 -200 -21 -47 -86 -122 -104 -122 -7 0 -11 56 -12
159 l-1 160 50 -1 c40 -1 56 3 73 20 30 31 37 28 37 -16z m-1327 -139 c-7 -2
-19 -2 -25 0 -7 3 -2 5 12 5 14 0 19 -2 13 -5z m341 -49 c26 -25 19 -47 -35
-117 -57 -74 -81 -87 -110 -61 -25 22 -24 67 1 118 32 66 107 98 144 60z m453
-46 c27 -25 30 -73 8 -102 -8 -11 -15 -30 -15 -43 0 -28 -38 -70 -72 -78 -52
-13 -118 37 -118 88 0 20 12 43 38 72 20 23 45 51 54 63 23 29 74 29 105 0z
m-927 -873 l0 -155 -227 2 -228 3 -3 153 -3 152 231 0 230 0 0 -155z"/>
<path d="M2870 4490 c0 -5 4 -10 9 -10 6 0 13 5 16 10 3 6 -1 10 -9 10 -9 0
-16 -4 -16 -10z"/>
<path d="M4105 3920 c-3 -6 1 -7 9 -4 18 7 21 14 7 14 -6 0 -13 -4 -16 -10z"/>
<path d="M4080 3890 c-9 -6 -10 -10 -3 -10 6 0 15 5 18 10 8 12 4 12 -15 0z"/>
<path d="M4255 3890 c-3 -5 -1 -10 4 -10 6 0 11 5 11 10 0 6 -2 10 -4 10 -3 0
-8 -4 -11 -10z"/>
<path d="M4127 3378 c10 -12 10 -18 -2 -34 -8 -10 -14 -26 -15 -34 0 -8 8 -2
19 13 13 20 20 25 24 15 3 -8 6 -5 6 7 1 11 -9 26 -21 34 -20 13 -22 12 -11
-1z"/>
<path d="M1130 3221 c0 -6 4 -13 10 -16 6 -3 7 1 4 9 -7 18 -14 21 -14 7z"/>
<path d="M3780 4180 c0 -5 5 -10 11 -10 5 0 7 5 4 10 -3 6 -8 10 -11 10 -2 0
-4 -4 -4 -10z"/>
<path d="M3844 4139 c0 -13 4 -15 12 -8 8 6 14 6 18 1 3 -6 -1 -13 -10 -16
-17 -6 -9 -29 9 -23 21 7 17 44 -6 54 -19 9 -23 8 -23 -8z"/>
<path d="M3871 4057 c-13 -21 -12 -21 5 -5 10 10 16 20 13 22 -3 3 -11 -5 -18
-17z"/>
<path d="M3866 4013 c-6 -14 -5 -15 5 -6 7 7 10 15 7 18 -3 3 -9 -2 -12 -12z"/>
<path d="M4061 3761 c-10 -7 -7 -9 12 -8 14 1 23 5 20 10 -6 9 -15 9 -32 -2z"/>
<path d="M3898 3425 c2 -13 10 -29 17 -35 10 -8 13 -4 13 16 0 18 -3 22 -9 13
-7 -11 -9 -10 -9 3 0 9 -4 19 -9 22 -4 3 -6 -6 -3 -19z"/>
<path d="M2220 3205 c-46 -21 -87 -61 -113 -110 -17 -32 -22 -57 -22 -125 0
-77 3 -90 31 -140 72 -128 216 -159 320 -67 129 113 102 351 -48 428 -54 28
-124 33 -168 14z m109 -133 c20 -38 -31 -71 -59 -37 -6 8 -9 23 -5 35 8 25 51
27 64 2z"/>
<path d="M3913 3135 c-12 -5 -24 -18 -27 -28 -2 -10 -2 -16 1 -13 3 3 12 -1
20 -9 19 -20 37 -19 54 2 11 13 11 17 1 20 -6 3 -10 8 -8 11 9 15 -19 27 -41
17z"/>
<path d="M847 2988 c-44 -75 -52 -97 -39 -110 24 -24 53 27 41 72 -2 8 1 14 8
13 6 -1 17 5 25 15 12 15 11 16 -4 3 -21 -15 -23 -9 -7 21 22 40 0 28 -24 -14z
m-15 -100 c-7 -7 -12 -8 -12 -2 0 14 12 26 19 19 2 -3 -1 -11 -7 -17z"/>
<path d="M2665 2970 c-9 -14 13 -89 41 -137 13 -22 45 -59 70 -82 l47 -41 48
45 c53 50 80 60 145 52 48 -5 107 -50 123 -92 7 -17 13 -14 57 30 56 56 91
124 101 190 l6 45 -316 0 c-195 0 -318 -4 -322 -10z"/>
<path d="M3594 2686 c23 -18 36 -20 36 -6 0 6 -4 10 -9 10 -5 0 -18 3 -28 6
-16 5 -16 4 1 -10z"/>
<path d="M3594 2661 c4 -5 0 -11 -6 -14 -7 -2 -1 -4 14 -4 23 0 25 2 13 13
-15 16 -29 19 -21 5z"/>
<path d="M3640 2660 c0 -5 5 -10 10 -10 6 0 10 5 10 10 0 6 -4 10 -10 10 -5 0
-10 -4 -10 -10z"/>
<path d="M1855 2103 c-49 -5 -65 -18 -65 -50 0 -57 12 -63 120 -63 90 0 100 2
110 21 11 20 5 75 -8 83 -13 7 -117 13 -157 9z"/>
<path d="M2831 2044 c0 -11 3 -14 6 -6 3 7 2 16 -1 19 -3 4 -6 -2 -5 -13z"/>
<path d="M2795 1970 c-3 -5 -1 -10 4 -10 6 0 11 5 11 10 0 6 -2 10 -4 10 -3 0
-8 -4 -11 -10z"/>
<path d="M2720 1941 c0 -11 29 -35 35 -29 2 2 -4 12 -15 21 -11 9 -20 13 -20
8z"/>
<path d="M2098 1879 c-27 -15 -24 -67 5 -78 27 -11 59 14 55 42 -4 28 -39 48
-60 36z"/>
<path d="M2241 1849 c-2 -47 23 -67 57 -43 12 8 22 21 22 28 0 22 -25 47 -51
50 -23 3 -25 -1 -28 -35z"/>
<path d="M2406 1871 c-22 -24 -18 -49 10 -68 19 -12 24 -12 38 2 22 22 20 62
-3 75 -25 13 -25 13 -45 -9z"/>
<path d="M1974 1839 c-1 -17 -7 -35 -15 -40 -20 -13 -63 -11 -78 4 -8 6 -5 -1
5 -18 23 -37 33 -45 62 -45 49 0 80 70 48 113 -18 23 -21 22 -22 -14z"/>
<path d="M2695 1850 c4 -6 11 -8 16 -5 14 9 11 15 -7 15 -8 0 -12 -5 -9 -10z"/>
<path d="M3022 1841 c-11 -7 -11 -9 2 -14 10 -4 16 -1 16 8 0 17 -1 17 -18 6z"/>
<path d="M2556 1704 c-5 -14 -4 -15 9 -4 17 14 19 20 6 20 -5 0 -12 -7 -15
-16z"/>
<path d="M2565 1630 c4 -6 11 -8 16 -5 14 9 11 15 -7 15 -8 0 -12 -5 -9 -10z"/>
<path d="M2400 1618 c0 -5 9 -12 20 -15 11 -3 20 -13 20 -22 0 -13 2 -14 9 -2
6 9 6 22 1 31 -9 17 -50 25 -50 8z"/>
</g>
</svg>
